<svg width="179" height="48" viewBox="0 0 179 48" fill="none" xmlns="http://www.w3.org/2000/svg">
<rect opacity="0.8" x="0.5" y="0.5" width="178" height="47" rx="7.5" stroke="#171717"/>
<path d="M52.304 26.072C52.304 26.6053 52.176 27.1013 51.92 27.56C51.664 28.0187 51.2747 28.392 50.752 28.68C50.2293 28.968 49.584 29.112 48.816 29.112C48.0693 29.112 47.4027 28.9787 46.816 28.712C46.24 28.4347 45.776 28.0613 45.424 27.592C45.0827 27.112 44.8853 26.568 44.832 25.96H46.384C46.416 26.28 46.5227 26.5947 46.704 26.904C46.896 27.2027 47.1627 27.4533 47.504 27.656C47.856 27.848 48.2773 27.944 48.768 27.944C49.408 27.944 49.8987 27.7733 50.24 27.432C50.5813 27.0907 50.752 26.6533 50.752 26.12C50.752 25.6613 50.6293 25.288 50.384 25C50.1493 24.712 49.856 24.488 49.504 24.328C49.152 24.1573 48.672 23.976 48.064 23.784C47.3493 23.5493 46.7733 23.3307 46.336 23.128C45.9093 22.9147 45.5413 22.6 45.232 22.184C44.9333 21.768 44.784 21.2187 44.784 20.536C44.784 19.9493 44.9227 19.432 45.2 18.984C45.488 18.536 45.8933 18.1893 46.416 17.944C46.9493 17.6987 47.5733 17.576 48.288 17.576C49.3973 17.576 50.2773 17.848 50.928 18.392C51.5787 18.9253 51.9573 19.608 52.064 20.44H50.496C50.4107 19.992 50.1813 19.5973 49.808 19.256C49.4347 18.9147 48.928 18.744 48.288 18.744C47.7013 18.744 47.232 18.8987 46.88 19.208C46.528 19.5067 46.352 19.9333 46.352 20.488C46.352 20.9253 46.464 21.2827 46.688 21.56C46.9227 21.8267 47.2107 22.04 47.552 22.2C47.8933 22.3493 48.3627 22.52 48.96 22.712C49.6853 22.9467 50.2667 23.1707 50.704 23.384C51.152 23.5973 51.5307 23.9227 51.84 24.36C52.1493 24.7867 52.304 25.3573 52.304 26.072ZM62.3418 24.12C62.3418 24.4293 62.3204 24.696 62.2778 24.92H55.2538C55.2858 25.9227 55.5684 26.6747 56.1018 27.176C56.6458 27.6773 57.3071 27.928 58.0858 27.928C58.7898 27.928 59.3764 27.752 59.8458 27.4C60.3258 27.0373 60.6191 26.5573 60.7258 25.96H62.2778C62.1711 26.568 61.9311 27.112 61.5578 27.592C61.1951 28.072 60.7204 28.4453 60.1338 28.712C59.5471 28.9787 58.8858 29.112 58.1498 29.112C57.3071 29.112 56.5604 28.9307 55.9098 28.568C55.2591 28.2053 54.7471 27.688 54.3738 27.016C54.0111 26.3333 53.8298 25.5333 53.8298 24.616C53.8298 23.6987 54.0111 22.8987 54.3738 22.216C54.7471 21.5333 55.2591 21.0107 55.9098 20.648C56.5604 20.2853 57.3071 20.104 58.1498 20.104C59.0031 20.104 59.7444 20.2853 60.3738 20.648C61.0138 21.0107 61.4991 21.496 61.8298 22.104C62.1711 22.712 62.3418 23.384 62.3418 24.12ZM60.8698 24.216C60.9018 23.5653 60.7951 23.0213 60.5498 22.584C60.3044 22.1467 59.9684 21.8213 59.5418 21.608C59.1151 21.3947 58.6511 21.288 58.1498 21.288C57.3498 21.288 56.6778 21.5387 56.1338 22.04C55.5898 22.5307 55.2964 23.256 55.2538 24.216H60.8698ZM68.8701 20.072C69.8941 20.072 70.7208 20.4027 71.3501 21.064C71.9795 21.7147 72.2941 22.6587 72.2941 23.896V29H70.8381V24.024C70.8381 23.1493 70.6141 22.4773 70.1661 22.008C69.7181 21.5387 69.1101 21.304 68.3421 21.304C67.5421 21.304 66.9021 21.5653 66.4221 22.088C65.9421 22.6 65.7021 23.352 65.7021 24.344V29H64.2461V20.216H65.7021V22.296C65.9261 21.5813 66.3208 21.032 66.8861 20.648C67.4621 20.264 68.1235 20.072 68.8701 20.072ZM78.1274 20.104C78.9807 20.104 79.7007 20.3173 80.2874 20.744C80.8847 21.1707 81.3007 21.7413 81.5354 22.456V17.16H82.9914V29H81.5354V26.76C81.3007 27.4747 80.8847 28.0453 80.2874 28.472C79.7007 28.8987 78.9807 29.112 78.1274 29.112C77.3487 29.112 76.6554 28.9307 76.0474 28.568C75.4394 28.2053 74.9594 27.688 74.6074 27.016C74.266 26.3333 74.0954 25.5333 74.0954 24.616C74.0954 23.6987 74.266 22.8987 74.6074 22.216C74.9594 21.5333 75.4394 21.0107 76.0474 20.648C76.6554 20.2853 77.3487 20.104 78.1274 20.104ZM78.5434 21.4C77.6474 21.4 76.9274 21.688 76.3834 22.264C75.85 22.8293 75.5834 23.6133 75.5834 24.616C75.5834 25.6187 75.85 26.408 76.3834 26.984C76.9274 27.5493 77.6474 27.832 78.5434 27.832C79.1194 27.832 79.6314 27.6987 80.0794 27.432C80.538 27.1653 80.8954 26.792 81.1514 26.312C81.4074 25.8213 81.5354 25.256 81.5354 24.616C81.5354 23.976 81.4074 23.4107 81.1514 22.92C80.8954 22.4293 80.538 22.056 80.0794 21.8C79.6314 21.5333 79.1194 21.4 78.5434 21.4ZM100.062 20.072C101.086 20.072 101.907 20.4027 102.526 21.064C103.155 21.7147 103.47 22.6587 103.47 23.896V29H102.014V24.024C102.014 23.16 101.8 22.4987 101.374 22.04C100.958 21.5813 100.382 21.352 99.6458 21.352C98.8778 21.352 98.2591 21.608 97.7898 22.12C97.3311 22.6213 97.1018 23.3627 97.1018 24.344V29H95.6458V24.024C95.6458 23.16 95.4324 22.4987 95.0058 22.04C94.5791 21.5813 94.0031 21.352 93.2778 21.352C92.4991 21.352 91.8751 21.608 91.4058 22.12C90.9471 22.6213 90.7178 23.3627 90.7178 24.344V29H89.2618V20.216H90.7178V22.216C90.9311 21.5227 91.3098 20.9947 91.8538 20.632C92.4084 20.2587 93.0431 20.072 93.7578 20.072C94.5044 20.072 95.1498 20.264 95.6938 20.648C96.2484 21.0213 96.6431 21.576 96.8778 22.312C97.1231 21.5973 97.5338 21.048 98.1098 20.664C98.6858 20.2693 99.3364 20.072 100.062 20.072ZM113.811 24.12C113.811 24.4293 113.789 24.696 113.747 24.92H106.723C106.755 25.9227 107.037 26.6747 107.571 27.176C108.115 27.6773 108.776 27.928 109.555 27.928C110.259 27.928 110.845 27.752 111.315 27.4C111.795 27.0373 112.088 26.5573 112.195 25.96H113.747C113.64 26.568 113.4 27.112 113.027 27.592C112.664 28.072 112.189 28.4453 111.603 28.712C111.016 28.9787 110.355 29.112 109.619 29.112C108.776 29.112 108.029 28.9307 107.379 28.568C106.728 28.2053 106.216 27.688 105.843 27.016C105.48 26.3333 105.299 25.5333 105.299 24.616C105.299 23.6987 105.48 22.8987 105.843 22.216C106.216 21.5333 106.728 21.0107 107.379 20.648C108.029 20.2853 108.776 20.104 109.619 20.104C110.472 20.104 111.213 20.2853 111.843 20.648C112.483 21.0107 112.968 21.496 113.299 22.104C113.64 22.712 113.811 23.384 113.811 24.12ZM112.339 24.216C112.371 23.5653 112.264 23.0213 112.019 22.584C111.773 22.1467 111.437 21.8213 111.011 21.608C110.584 21.3947 110.12 21.288 109.619 21.288C108.819 21.288 108.147 21.5387 107.603 22.04C107.059 22.5307 106.765 23.256 106.723 24.216H112.339ZM118.467 20.104C119.459 20.104 120.254 20.3653 120.851 20.888C121.459 21.4 121.827 22.0933 121.955 22.968H120.563C120.499 22.4453 120.28 22.0187 119.907 21.688C119.544 21.3467 119.054 21.176 118.435 21.176C117.912 21.176 117.502 21.304 117.203 21.56C116.915 21.8053 116.771 22.1413 116.771 22.568C116.771 22.888 116.867 23.1493 117.059 23.352C117.262 23.544 117.507 23.6933 117.795 23.8C118.094 23.896 118.499 24.0027 119.011 24.12C119.662 24.2693 120.184 24.424 120.579 24.584C120.984 24.7333 121.326 24.9787 121.603 25.32C121.891 25.6613 122.035 26.12 122.035 26.696C122.035 27.4107 121.763 27.992 121.219 28.44C120.686 28.888 119.971 29.112 119.075 29.112C118.03 29.112 117.176 28.8613 116.515 28.36C115.854 27.8587 115.464 27.16 115.347 26.264H116.755C116.808 26.7973 117.038 27.2293 117.443 27.56C117.859 27.8907 118.403 28.056 119.075 28.056C119.576 28.056 119.966 27.928 120.243 27.672C120.531 27.416 120.675 27.08 120.675 26.664C120.675 26.3227 120.574 26.0507 120.371 25.848C120.168 25.6453 119.918 25.4907 119.619 25.384C119.32 25.2773 118.91 25.1653 118.387 25.048C117.736 24.8987 117.214 24.7493 116.819 24.6C116.435 24.4507 116.104 24.216 115.827 23.896C115.56 23.5653 115.427 23.1227 115.427 22.568C115.427 21.832 115.699 21.24 116.243 20.792C116.787 20.3333 117.528 20.104 118.467 20.104ZM126.733 20.104C127.725 20.104 128.519 20.3653 129.117 20.888C129.725 21.4 130.093 22.0933 130.221 22.968H128.829C128.765 22.4453 128.546 22.0187 128.173 21.688C127.81 21.3467 127.319 21.176 126.701 21.176C126.178 21.176 125.767 21.304 125.469 21.56C125.181 21.8053 125.037 22.1413 125.037 22.568C125.037 22.888 125.133 23.1493 125.325 23.352C125.527 23.544 125.773 23.6933 126.061 23.8C126.359 23.896 126.765 24.0027 127.277 24.12C127.927 24.2693 128.45 24.424 128.845 24.584C129.25 24.7333 129.591 24.9787 129.869 25.32C130.157 25.6613 130.301 26.12 130.301 26.696C130.301 27.4107 130.029 27.992 129.485 28.44C128.951 28.888 128.237 29.112 127.341 29.112C126.295 29.112 125.442 28.8613 124.781 28.36C124.119 27.8587 123.73 27.16 123.613 26.264H125.021C125.074 26.7973 125.303 27.2293 125.709 27.56C126.125 27.8907 126.669 28.056 127.341 28.056C127.842 28.056 128.231 27.928 128.509 27.672C128.797 27.416 128.941 27.08 128.941 26.664C128.941 26.3227 128.839 26.0507 128.637 25.848C128.434 25.6453 128.183 25.4907 127.885 25.384C127.586 25.2773 127.175 25.1653 126.653 25.048C126.002 24.8987 125.479 24.7493 125.085 24.6C124.701 24.4507 124.37 24.216 124.093 23.896C123.826 23.5653 123.693 23.1227 123.693 22.568C123.693 21.832 123.965 21.24 124.509 20.792C125.053 20.3333 125.794 20.104 126.733 20.104ZM135.846 20.104C136.699 20.104 137.419 20.3173 138.006 20.744C138.603 21.1707 139.019 21.7413 139.254 22.456V20.216H140.71V29H139.254V26.76C139.019 27.4747 138.603 28.0453 138.006 28.472C137.419 28.8987 136.699 29.112 135.846 29.112C135.067 29.112 134.374 28.9307 133.766 28.568C133.158 28.2053 132.678 27.688 132.326 27.016C131.985 26.3333 131.814 25.5333 131.814 24.616C131.814 23.6987 131.985 22.8987 132.326 22.216C132.678 21.5333 133.158 21.0107 133.766 20.648C134.374 20.2853 135.067 20.104 135.846 20.104ZM136.262 21.4C135.366 21.4 134.646 21.688 134.102 22.264C133.569 22.8293 133.302 23.6133 133.302 24.616C133.302 25.6187 133.569 26.408 134.102 26.984C134.646 27.5493 135.366 27.832 136.262 27.832C136.838 27.832 137.35 27.6987 137.798 27.432C138.257 27.1653 138.614 26.792 138.87 26.312C139.126 25.8213 139.254 25.256 139.254 24.616C139.254 23.976 139.126 23.4107 138.87 22.92C138.614 22.4293 138.257 22.056 137.798 21.8C137.35 21.5333 136.838 21.4 136.262 21.4ZM146.627 20.104C147.481 20.104 148.201 20.3173 148.787 20.744C149.385 21.1707 149.801 21.7413 150.035 22.456V20.216H151.491V29.144C151.491 29.9547 151.321 30.6747 150.979 31.304C150.638 31.9333 150.158 32.424 149.539 32.776C148.921 33.128 148.201 33.304 147.379 33.304C146.195 33.304 145.23 33.016 144.483 32.44C143.737 31.8747 143.262 31.1067 143.059 30.136H144.499C144.67 30.7227 144.99 31.1813 145.459 31.512C145.939 31.8533 146.553 32.024 147.299 32.024C148.089 32.024 148.739 31.768 149.251 31.256C149.774 30.7547 150.035 30.0507 150.035 29.144V26.76C149.801 27.4747 149.385 28.0453 148.787 28.472C148.201 28.8987 147.481 29.112 146.627 29.112C145.849 29.112 145.155 28.9307 144.547 28.568C143.939 28.2053 143.459 27.688 143.107 27.016C142.766 26.3333 142.595 25.5333 142.595 24.616C142.595 23.6987 142.766 22.8987 143.107 22.216C143.459 21.5333 143.939 21.0107 144.547 20.648C145.155 20.2853 145.849 20.104 146.627 20.104ZM147.043 21.4C146.147 21.4 145.427 21.688 144.883 22.264C144.35 22.8293 144.083 23.6133 144.083 24.616C144.083 25.6187 144.35 26.408 144.883 26.984C145.427 27.5493 146.147 27.832 147.043 27.832C147.619 27.832 148.131 27.6987 148.579 27.432C149.038 27.1653 149.395 26.792 149.651 26.312C149.907 25.8213 150.035 25.256 150.035 24.616C150.035 23.976 149.907 23.4107 149.651 22.92C149.395 22.4293 149.038 22.056 148.579 21.8C148.131 21.5333 147.619 21.4 147.043 21.4ZM161.889 24.12C161.889 24.4293 161.867 24.696 161.825 24.92H154.801C154.833 25.9227 155.115 26.6747 155.649 27.176C156.193 27.6773 156.854 27.928 157.633 27.928C158.337 27.928 158.923 27.752 159.393 27.4C159.873 27.0373 160.166 26.5573 160.273 25.96H161.825C161.718 26.568 161.478 27.112 161.105 27.592C160.742 28.072 160.267 28.4453 159.681 28.712C159.094 28.9787 158.433 29.112 157.697 29.112C156.854 29.112 156.107 28.9307 155.457 28.568C154.806 28.2053 154.294 27.688 153.921 27.016C153.558 26.3333 153.377 25.5333 153.377 24.616C153.377 23.6987 153.558 22.8987 153.921 22.216C154.294 21.5333 154.806 21.0107 155.457 20.648C156.107 20.2853 156.854 20.104 157.697 20.104C158.55 20.104 159.291 20.2853 159.921 20.648C160.561 21.0107 161.046 21.496 161.377 22.104C161.718 22.712 161.889 23.384 161.889 24.12ZM160.417 24.216C160.449 23.5653 160.342 23.0213 160.097 22.584C159.851 22.1467 159.515 21.8213 159.089 21.608C158.662 21.3947 158.198 21.288 157.697 21.288C156.897 21.288 156.225 21.5387 155.681 22.04C155.137 22.5307 154.843 23.256 154.801 24.216H160.417Z" fill="#212121" fill-opacity="0.9"/>
<g clip-path="url(#clip0_1_1620)">
<path d="M35.8284 14.1725C35.6626 14.0067 35.414 13.9557 35.1965 14.0428L16.3683 21.5739C16.1529 21.6601 16.0087 21.8653 16.0004 22.0972C15.9921 22.329 16.1215 22.5439 16.3303 22.6452L23.7548 26.246L27.3556 33.6705C27.4538 33.873 27.6589 34.0008 27.8827 34.0008C27.8896 34.0008 27.8966 34.0007 27.9036 34.0004C28.1355 33.9922 28.3407 33.8479 28.4268 33.6325L35.9581 14.8045C36.0451 14.5868 35.9941 14.3382 35.8284 14.1725ZM18.0349 22.1695L32.9812 16.191L24.0738 25.0983L18.0349 22.1695ZM27.8313 31.9659L24.9025 25.9269L33.8099 17.0196L27.8313 31.9659Z" fill="#212121"/>
</g>
<defs>
<clipPath id="clip0_1_1620">
<rect width="20" height="20" fill="white" transform="translate(16 14)"/>
</clipPath>
</defs>
</svg>
